<svg width="606" height="600" viewBox="0 0 606 600" fill="none" xmlns="http://www.w3.org/2000/svg">
<path fill-rule="evenodd" clip-rule="evenodd" d="M146.065 300.001C146.065 213.764 215.974 143.854 302.211 143.854C388.449 143.854 458.358 213.764 458.358 300.001C458.358 386.238 388.449 456.147 302.211 456.147C215.974 456.147 146.065 386.238 146.065 300.001Z" fill="#F2A50C"/>
<path fill-rule="evenodd" clip-rule="evenodd" d="M302.204 143.848C215.967 143.848 146.052 213.763 146.052 300C146.052 361.579 181.736 414.815 233.519 440.234C323.59 419.106 390.681 338.311 390.681 241.797C390.681 213.265 384.793 186.114 374.209 161.458C352.661 150.238 328.179 143.848 302.204 143.848Z" fill="#FCCA3D"/>
<path fill-rule="evenodd" clip-rule="evenodd" d="M302.204 179.069C297.759 179.067 293.496 180.812 290.352 183.92C287.208 187.027 285.441 191.242 285.44 195.638V214.941C263.94 221.745 247.94 241.213 247.94 264.453C247.94 293.431 272.811 316.569 302.204 316.569C314.243 316.569 322.94 325.268 322.94 335.547C322.94 345.825 314.243 354.492 302.204 354.492C290.166 354.492 281.468 345.825 281.468 335.547C281.467 331.151 279.7 326.936 276.556 323.828C273.412 320.721 269.149 318.976 264.704 318.978C260.259 318.976 255.996 320.721 252.852 323.828C249.709 326.936 247.941 331.151 247.94 335.547C247.94 358.787 263.94 378.255 285.44 385.058V404.362C285.441 408.758 287.209 412.973 290.352 416.08C293.496 419.187 297.759 420.932 302.204 420.931C306.649 420.932 310.912 419.187 314.056 416.08C317.2 412.973 318.967 408.758 318.968 404.362V385.058C340.468 378.255 356.468 358.787 356.468 335.547C356.468 306.569 331.597 283.431 302.204 283.431C290.166 283.431 281.468 274.731 281.468 264.453C281.468 254.175 290.166 245.508 302.204 245.508C314.243 245.508 322.94 254.175 322.94 264.453C322.941 268.849 324.709 273.064 327.852 276.171C330.996 279.278 335.259 281.023 339.704 281.022C344.149 281.023 348.412 279.278 351.556 276.171C354.7 273.064 356.467 268.849 356.468 264.453C356.468 241.213 340.468 221.745 318.968 214.941V195.638C318.967 191.242 317.2 187.027 314.056 183.92C310.912 180.812 306.649 179.067 302.204 179.069Z" fill="#808B9B"/>
<path fill-rule="evenodd" clip-rule="evenodd" d="M73.1678 454.525C70.27 454.892 67.5197 456.015 65.1925 457.78C61.6715 460.449 59.3543 464.407 58.75 468.783C58.1457 473.16 59.3038 477.597 61.9698 481.12C85.4297 512.088 115.34 538.985 151.032 559.603C265.836 625.92 406.557 607.683 500.577 523.926C502.21 522.468 503.54 520.703 504.491 518.732C505.442 516.76 505.995 514.62 506.119 512.435C506.243 510.249 505.935 508.061 505.214 505.994C504.492 503.928 503.369 502.024 501.912 500.391C498.969 497.102 494.842 495.115 490.436 494.864C486.03 494.614 481.705 496.121 478.409 499.056C394.912 573.438 270.037 589.858 167.732 530.761C135.925 512.388 109.372 488.511 88.5326 461.002C86.766 458.668 84.416 456.841 81.7188 455.704C79.0216 454.567 76.0721 454.16 73.1678 454.525Z" fill="#808B9B"/>
<path fill-rule="evenodd" clip-rule="evenodd" d="M304.288 0.162764C292.675 0.0960971 281.109 0.689462 269.62 1.95313C208.342 8.69379 149.637 34.1957 102.627 76.0742C100.994 77.5318 99.664 79.2967 98.713 81.2683C97.762 83.24 97.2088 85.3796 97.0849 87.5651C96.9609 89.7506 97.2685 91.9393 97.9905 94.0058C98.7124 96.0724 99.8346 97.9765 101.292 99.6094C102.75 101.243 104.515 102.573 106.487 103.524C108.458 104.475 110.598 105.028 112.783 105.152C114.969 105.276 117.158 104.968 119.224 104.246C121.291 103.524 123.195 102.402 124.828 100.945C208.324 26.5619 333.2 10.1421 435.505 69.2388C472.146 90.4043 501.792 118.881 523.786 151.791C526.243 155.463 530.058 158.01 534.392 158.87C538.726 159.731 543.224 158.836 546.898 156.381C550.57 153.924 553.117 150.109 553.978 145.775C554.838 141.441 553.943 136.943 551.488 133.269C526.734 96.2301 493.289 64.149 452.171 40.3976C405.533 13.4565 354.607 0.471597 304.288 0.162764Z" fill="#808B9B"/>
<path fill-rule="evenodd" clip-rule="evenodd" d="M0.974509 298.185C0.882203 309.797 1.45003 321.365 2.68832 332.857C9.29367 394.15 34.6659 452.91 76.4405 500.013C77.8944 501.649 79.6564 502.983 81.626 503.938C83.5955 504.894 85.7339 505.452 87.9191 505.58C90.1044 505.709 92.2937 505.406 94.3619 504.689C96.43 503.972 98.3366 502.854 99.9727 501.399C101.609 499.945 102.943 498.183 103.899 496.214C104.854 494.244 105.412 492.106 105.541 489.921C105.669 487.735 105.366 485.546 104.649 483.478C103.932 481.41 102.814 479.503 101.36 477.867C27.1617 394.207 11.0177 269.295 70.3401 167.121C91.5864 130.527 120.128 100.944 153.087 79.0221C156.765 76.5732 159.32 72.7639 160.19 68.4319C161.06 64.0998 160.175 59.5996 157.728 55.9203C155.279 52.2425 151.47 49.6876 147.138 48.8174C142.805 47.9471 138.305 48.8327 134.626 51.2795C97.5327 75.9511 65.3779 109.326 41.5358 150.391C14.4917 196.97 1.39445 247.866 0.974509 298.185Z" fill="#808B9B"/>
<path fill-rule="evenodd" clip-rule="evenodd" d="M601.806 306.25C602.096 294.641 601.725 283.065 600.683 271.554C595.122 210.157 570.753 150.973 529.787 103.167C528.361 101.506 526.622 100.142 524.669 99.1532C522.716 98.1644 520.587 97.5702 518.405 97.4043C516.222 97.2383 514.028 97.5038 511.948 98.1858C509.868 98.8679 507.942 99.9532 506.282 101.379C504.621 102.805 503.257 104.544 502.268 106.497C501.279 108.45 500.685 110.579 500.519 112.762C500.353 114.944 500.619 117.139 501.301 119.219C501.983 121.299 503.068 123.224 504.494 124.885C577.257 209.796 591.272 334.965 530.219 436.114C508.353 472.341 479.311 501.434 445.984 522.791C442.265 525.177 439.646 528.942 438.702 533.259C437.758 537.576 438.567 542.09 440.951 545.811C443.337 549.53 447.102 552.149 451.419 553.093C455.735 554.037 460.25 553.228 463.97 550.844C501.478 526.808 534.197 493.985 558.734 453.332C586.567 407.22 600.529 356.554 601.806 306.25Z" fill="#808B9B"/>
</svg>
