<svg width="17" height="20" viewBox="0 0 17 20" fill="none" xmlns="http://www.w3.org/2000/svg">
<path d="M10.1666 1.66675H3.49992C3.05789 1.66675 2.63397 1.84234 2.32141 2.1549C2.00885 2.46746 1.83325 2.89139 1.83325 3.33341V16.6667C1.83325 17.1088 2.00885 17.5327 2.32141 17.8453C2.63397 18.1578 3.05789 18.3334 3.49992 18.3334H13.4999C13.9419 18.3334 14.3659 18.1578 14.6784 17.8453C14.991 17.5327 15.1666 17.1088 15.1666 16.6667V6.66675M10.1666 1.66675L15.1666 6.66675M10.1666 1.66675L10.1666 6.66675H15.1666M11.8333 10.8334H5.16659M11.8333 14.1667H5.16659M6.83325 7.50008H5.16659" stroke="#043E18" stroke-width="2" stroke-linecap="round" stroke-linejoin="round"/>
</svg>
